<mxfile host="app.diagrams.net" modified="2021-03-26T16:11:06.467Z" agent="5.0 (Windows NT 10.0; Win64; x64) AppleWebKit/537.36 (KHTML, like Gecko) Chrome/89.0.4389.90 Safari/537.36" etag="azVtabx7ND7AzLu66t8S" version="14.5.1" type="github">
  <diagram id="zb7yZdtgXkOcT8siEr5g" name="Page-1">
    <mxGraphModel dx="1038" dy="548" grid="1" gridSize="10" guides="1" tooltips="1" connect="1" arrows="1" fold="1" page="1" pageScale="1" pageWidth="850" pageHeight="1100" math="0" shadow="0">
      <root>
        <mxCell id="0" />
        <mxCell id="1" parent="0" />
        <mxCell id="_Aiej2ZlhXm-cctuSYJb-5" value="" style="image;html=1;image=img/lib/clip_art/computers/Server_Tower_128x128.png" parent="1" vertex="1">
          <mxGeometry x="570" y="150" width="130" height="245" as="geometry" />
        </mxCell>
        <mxCell id="_Aiej2ZlhXm-cctuSYJb-6" value="" style="image;html=1;image=img/lib/clip_art/computers/Database_128x128.png" parent="1" vertex="1">
          <mxGeometry x="740" y="230" width="80" height="110" as="geometry" />
        </mxCell>
        <mxCell id="_Aiej2ZlhXm-cctuSYJb-7" value="" style="aspect=fixed;perimeter=ellipsePerimeter;html=1;align=center;shadow=0;dashed=0;spacingTop=3;image;image=img/lib/active_directory/internet_cloud.svg;" parent="1" vertex="1">
          <mxGeometry x="260" y="70" width="200.08" height="126.05" as="geometry" />
        </mxCell>
        <mxCell id="_Aiej2ZlhXm-cctuSYJb-8" value="" style="aspect=fixed;pointerEvents=1;shadow=0;dashed=0;html=1;strokeColor=none;labelPosition=center;verticalLabelPosition=bottom;verticalAlign=top;align=center;fillColor=#00188D;shape=mxgraph.mscae.enterprise.client_application" parent="1" vertex="1">
          <mxGeometry x="5.5600000000000005" y="10" width="109.38" height="70" as="geometry" />
        </mxCell>
        <mxCell id="_Aiej2ZlhXm-cctuSYJb-11" value="" style="aspect=fixed;pointerEvents=1;shadow=0;dashed=0;html=1;strokeColor=none;labelPosition=center;verticalLabelPosition=bottom;verticalAlign=top;align=center;fillColor=#00188D;shape=mxgraph.mscae.enterprise.workstation_client" parent="1" vertex="1">
          <mxGeometry x="110" y="290" width="70" height="70" as="geometry" />
        </mxCell>
        <mxCell id="_Aiej2ZlhXm-cctuSYJb-13" value="" style="outlineConnect=0;dashed=0;verticalLabelPosition=bottom;verticalAlign=top;align=center;html=1;shape=mxgraph.aws3.mobile_client;fillColor=#D2D3D3;gradientColor=none;" parent="1" vertex="1">
          <mxGeometry x="30" y="150" width="60.5" height="110" as="geometry" />
        </mxCell>
        <mxCell id="_Aiej2ZlhXm-cctuSYJb-15" value="&lt;b&gt;&lt;font style=&quot;font-size: 19px&quot;&gt;Server&lt;/font&gt;&lt;/b&gt;" style="text;html=1;strokeColor=#b85450;fillColor=#f8cecc;align=center;verticalAlign=middle;whiteSpace=wrap;rounded=0;" parent="1" vertex="1">
          <mxGeometry x="580" y="395" width="80" height="25" as="geometry" />
        </mxCell>
        <mxCell id="_Aiej2ZlhXm-cctuSYJb-16" value="&lt;b style=&quot;font-size: 17px;&quot;&gt;&lt;font style=&quot;font-size: 17px;&quot;&gt;Database&lt;/font&gt;&lt;/b&gt;" style="text;html=1;strokeColor=#b85450;fillColor=#f8cecc;align=center;verticalAlign=middle;whiteSpace=wrap;rounded=0;fontSize=17;" parent="1" vertex="1">
          <mxGeometry x="730" y="395" width="100" height="25" as="geometry" />
        </mxCell>
        <mxCell id="_Aiej2ZlhXm-cctuSYJb-20" value="Request" style="text;html=1;strokeColor=none;fillColor=none;align=center;verticalAlign=middle;whiteSpace=wrap;rounded=0;fontSize=17;rotation=30;" parent="1" vertex="1">
          <mxGeometry x="480" y="160" width="80" height="20" as="geometry" />
        </mxCell>
        <mxCell id="_Aiej2ZlhXm-cctuSYJb-21" value="Response" style="text;html=1;strokeColor=none;fillColor=none;align=center;verticalAlign=middle;whiteSpace=wrap;rounded=0;fontSize=17;rotation=25;" parent="1" vertex="1">
          <mxGeometry x="430" y="230" width="100" height="20" as="geometry" />
        </mxCell>
        <mxCell id="_Aiej2ZlhXm-cctuSYJb-22" style="edgeStyle=orthogonalEdgeStyle;rounded=0;orthogonalLoop=1;jettySize=auto;html=1;exitX=0.5;exitY=1;exitDx=0;exitDy=0;fontSize=17;" parent="1" source="_Aiej2ZlhXm-cctuSYJb-15" target="_Aiej2ZlhXm-cctuSYJb-15" edge="1">
          <mxGeometry relative="1" as="geometry" />
        </mxCell>
        <mxCell id="_Aiej2ZlhXm-cctuSYJb-28" value="" style="endArrow=classic;html=1;strokeWidth=5;fontSize=17;exitX=1;exitY=0.75;exitDx=0;exitDy=0;entryX=0;entryY=0.25;entryDx=0;entryDy=0;strokeColor=#FF9999;" parent="1" source="_Aiej2ZlhXm-cctuSYJb-7" target="_Aiej2ZlhXm-cctuSYJb-5" edge="1">
          <mxGeometry width="50" height="50" relative="1" as="geometry">
            <mxPoint x="460" y="220" as="sourcePoint" />
            <mxPoint x="510" y="170" as="targetPoint" />
          </mxGeometry>
        </mxCell>
        <mxCell id="_Aiej2ZlhXm-cctuSYJb-29" value="" style="endArrow=classic;html=1;strokeColor=#FF9999;strokeWidth=5;fontSize=17;entryX=1;entryY=1;entryDx=0;entryDy=0;" parent="1" source="_Aiej2ZlhXm-cctuSYJb-5" target="_Aiej2ZlhXm-cctuSYJb-7" edge="1">
          <mxGeometry width="50" height="50" relative="1" as="geometry">
            <mxPoint x="430" y="230" as="sourcePoint" />
            <mxPoint x="480" y="180" as="targetPoint" />
          </mxGeometry>
        </mxCell>
        <mxCell id="_Aiej2ZlhXm-cctuSYJb-30" value="" style="endArrow=classic;html=1;strokeColor=#FF9999;strokeWidth=5;fontSize=17;entryX=0;entryY=0;entryDx=0;entryDy=0;" parent="1" target="_Aiej2ZlhXm-cctuSYJb-7" edge="1">
          <mxGeometry width="50" height="50" relative="1" as="geometry">
            <mxPoint x="120" y="40" as="sourcePoint" />
            <mxPoint x="170" y="60" as="targetPoint" />
          </mxGeometry>
        </mxCell>
        <mxCell id="_Aiej2ZlhXm-cctuSYJb-31" value="" style="endArrow=classic;html=1;strokeColor=#FF9999;strokeWidth=5;fontSize=17;" parent="1" source="_Aiej2ZlhXm-cctuSYJb-7" edge="1">
          <mxGeometry width="50" height="50" relative="1" as="geometry">
            <mxPoint x="110" y="130" as="sourcePoint" />
            <mxPoint x="120" y="60" as="targetPoint" />
          </mxGeometry>
        </mxCell>
        <mxCell id="_Aiej2ZlhXm-cctuSYJb-32" value="" style="endArrow=classic;html=1;strokeColor=#FF9999;strokeWidth=5;fontSize=17;exitX=1;exitY=0.25;exitDx=0;exitDy=0;exitPerimeter=0;" parent="1" source="_Aiej2ZlhXm-cctuSYJb-13" target="_Aiej2ZlhXm-cctuSYJb-7" edge="1">
          <mxGeometry width="50" height="50" relative="1" as="geometry">
            <mxPoint x="110" y="220" as="sourcePoint" />
            <mxPoint x="160" y="170" as="targetPoint" />
          </mxGeometry>
        </mxCell>
        <mxCell id="_Aiej2ZlhXm-cctuSYJb-33" value="" style="endArrow=classic;html=1;strokeColor=#FF9999;strokeWidth=5;fontSize=17;exitX=0;exitY=0.75;exitDx=0;exitDy=0;" parent="1" source="_Aiej2ZlhXm-cctuSYJb-7" target="_Aiej2ZlhXm-cctuSYJb-13" edge="1">
          <mxGeometry width="50" height="50" relative="1" as="geometry">
            <mxPoint x="190" y="250" as="sourcePoint" />
            <mxPoint x="240" y="200" as="targetPoint" />
          </mxGeometry>
        </mxCell>
        <mxCell id="_Aiej2ZlhXm-cctuSYJb-34" value="" style="endArrow=classic;html=1;strokeColor=#FF9999;strokeWidth=5;fontSize=17;exitX=1.057;exitY=-0.009;exitDx=0;exitDy=0;exitPerimeter=0;entryX=0.254;entryY=1.004;entryDx=0;entryDy=0;entryPerimeter=0;" parent="1" source="_Aiej2ZlhXm-cctuSYJb-11" target="_Aiej2ZlhXm-cctuSYJb-7" edge="1">
          <mxGeometry width="50" height="50" relative="1" as="geometry">
            <mxPoint x="220" y="280" as="sourcePoint" />
            <mxPoint x="270" y="230" as="targetPoint" />
          </mxGeometry>
        </mxCell>
        <mxCell id="_Aiej2ZlhXm-cctuSYJb-35" value="" style="endArrow=classic;html=1;strokeColor=#FF9999;strokeWidth=5;fontSize=17;" parent="1" edge="1">
          <mxGeometry width="50" height="50" relative="1" as="geometry">
            <mxPoint x="330" y="200" as="sourcePoint" />
            <mxPoint x="190" y="310" as="targetPoint" />
          </mxGeometry>
        </mxCell>
        <mxCell id="_Aiej2ZlhXm-cctuSYJb-36" value="&lt;span style=&quot;color: rgb(0, 0, 0); font-family: helvetica; font-size: 17px; font-style: normal; font-weight: 400; letter-spacing: normal; text-align: center; text-indent: 0px; text-transform: none; word-spacing: 0px; background-color: rgb(248, 249, 250); display: inline; float: none;&quot;&gt;Request&lt;/span&gt;" style="text;whiteSpace=wrap;html=1;fontSize=17;rotation=20;" parent="1" vertex="1">
          <mxGeometry x="180" y="40" width="90" height="40" as="geometry" />
        </mxCell>
        <mxCell id="_Aiej2ZlhXm-cctuSYJb-37" value="&lt;span style=&quot;color: rgb(0, 0, 0); font-family: helvetica; font-size: 17px; font-style: normal; font-weight: 400; letter-spacing: normal; text-align: center; text-indent: 0px; text-transform: none; word-spacing: 0px; background-color: rgb(248, 249, 250); display: inline; float: none;&quot;&gt;Request&lt;/span&gt;" style="text;whiteSpace=wrap;html=1;fontSize=17;rotation=-30;" parent="1" vertex="1">
          <mxGeometry x="200" y="210" width="90" height="40" as="geometry" />
        </mxCell>
        <mxCell id="_Aiej2ZlhXm-cctuSYJb-38" value="&lt;span style=&quot;color: rgb(0, 0, 0); font-family: helvetica; font-size: 17px; font-style: normal; font-weight: 400; letter-spacing: normal; text-align: center; text-indent: 0px; text-transform: none; word-spacing: 0px; background-color: rgb(248, 249, 250); display: inline; float: none;&quot;&gt;Request&lt;/span&gt;" style="text;whiteSpace=wrap;html=1;fontSize=17;rotation=-15;" parent="1" vertex="1">
          <mxGeometry x="140" y="130" width="90" height="40" as="geometry" />
        </mxCell>
        <mxCell id="_Aiej2ZlhXm-cctuSYJb-39" value="Response" style="text;html=1;strokeColor=none;fillColor=none;align=center;verticalAlign=middle;whiteSpace=wrap;rounded=0;fontSize=17;rotation=-45;" parent="1" vertex="1">
          <mxGeometry x="245.94" y="241.67" width="90" height="28.54" as="geometry" />
        </mxCell>
        <mxCell id="_Aiej2ZlhXm-cctuSYJb-40" value="Response" style="text;html=1;strokeColor=none;fillColor=none;align=center;verticalAlign=middle;whiteSpace=wrap;rounded=0;fontSize=17;rotation=-15;" parent="1" vertex="1">
          <mxGeometry x="140" y="190" width="100" height="20" as="geometry" />
        </mxCell>
        <mxCell id="_Aiej2ZlhXm-cctuSYJb-41" value="Response" style="text;html=1;strokeColor=none;fillColor=none;align=center;verticalAlign=middle;whiteSpace=wrap;rounded=0;fontSize=17;rotation=20;" parent="1" vertex="1">
          <mxGeometry x="140" y="90" width="100" height="20" as="geometry" />
        </mxCell>
        <mxCell id="_Aiej2ZlhXm-cctuSYJb-42" value="Internet" style="text;html=1;align=center;verticalAlign=middle;whiteSpace=wrap;rounded=0;fontSize=25;fontColor=#FF9999;" parent="1" vertex="1">
          <mxGeometry x="310.04" y="120.00000000000001" width="100" height="40" as="geometry" />
        </mxCell>
        <mxCell id="_Aiej2ZlhXm-cctuSYJb-43" value="&lt;font color=&quot;#000000&quot; style=&quot;font-size: 22px;&quot;&gt;Client&lt;/font&gt;" style="text;html=1;strokeColor=#b85450;fillColor=#f8cecc;align=center;verticalAlign=middle;whiteSpace=wrap;rounded=0;fontSize=22;fontStyle=1" parent="1" vertex="1">
          <mxGeometry x="80" y="395" width="90" height="25" as="geometry" />
        </mxCell>
        <mxCell id="AF6QHMXaBpQy9E5SVXOj-1" value="" style="endArrow=none;html=1;" edge="1" parent="1">
          <mxGeometry width="50" height="50" relative="1" as="geometry">
            <mxPoint x="690" y="292" as="sourcePoint" />
            <mxPoint x="750" y="292" as="targetPoint" />
            <Array as="points">
              <mxPoint x="720" y="292" />
            </Array>
          </mxGeometry>
        </mxCell>
      </root>
    </mxGraphModel>
  </diagram>
</mxfile>
